<svg xmlns="http://www.w3.org/2000/svg" width="430" height="430" fill="none" viewBox="0 0 430 430"><g stroke-linecap="round" stroke-linejoin="round" stroke-width="18"><path stroke="#121331" stroke-miterlimit="14" d="M336.3 168.9c-17.9-42.1-59.7-71.6-108.3-71.6-45.4 0-84.8 25.8-104.5 63.5-3.6-1.2-7.4-1.8-11.3-1.8-20.2 0-36.6 16.4-36.6 36.6 0 2.7.3 5.3.9 7.9-21.8 11.5-36.7 34.3-36.7 60.6 0 37.8 30.7 68.5 68.5 68.5h196.9c46.9 0 84.8-38 84.8-84.8.2-35.9-22.2-66.5-53.7-78.9"/><path stroke="#121331" stroke-miterlimit="14" d="M146.6 183.3c-5.1-14.1-18.6-24.3-34.5-24.3m223.9 9c6.3 14.4 9.7 30.3 9.7 46.9 0 0 0 12.4-4.3 27.7"/><path stroke="#08a88a" stroke-miterlimit="10" d="m176.3 226.7-36.9 27.2 36.9 27.3m91-54.5 37 27.2-37 27.3m-37.1-54.5-17.6 54.5"/></g></svg>